<svg xmlns="http://www.w3.org/2000/svg" viewBox="0 0 809.7 500"><path fill="white" d="M805.4 395c-44.4-44-100.5-72-162.2-81a14.3 14.3 0 0 0-16.3 12.2c-1.1 7.9 4.3 15.2 12.2 16.4 50.5 7.4 97 29 135.1 62.7-46.9 41.4-107.1 64.7-170.3 65.8-60.1 1.1-118.2-17.9-165.3-53.8C582.1 398.8 694.2 276.1 695 128.4c0-3.8-1.5-7.6-4.2-10.3-2.9-2.9-6.8-4.5-10.5-4.2-61.1.4-119.5 19.5-168.8 55.3a14.4 14.4 0 0 0 6.2 25.9c3.8.6 7.6-.3 10.7-2.6 40.3-29.3 87.6-46.2 137.3-49.3-4.1 65.3-32.3 126.4-80 172.6-41.3 40-93.4 65.1-149.2 72.6C525 274 518 108.5 414.7 4.1c-2.6-2.7-6.4-4.2-10.3-4.2s-7.6 1.5-10.2 4.2c-44 44.4-72 100.5-81 162.2-1.1 7.9 4.3 15.2 12.2 16.4 7.9 1.1 15.2-4.4 16.3-12.2 7.4-50.5 29-97 62.7-135.1 43 48.8 65.9 111.6 64.7 177.7-1.1 57.2-20.2 111.6-54.4 156.3-18.3-142.3-139.6-254-285.4-255.5a14.5 14.5 0 0 0-14.7 14.4v28.3a291 291 0 0 0 50.9 136.8 14.4 14.4 0 0 0 20.1 3.5c3.2-2.2 5.3-5.5 5.9-9.3.7-3.8-.2-7.6-2.4-10.8a261.92 261.92 0 0 1-45.8-122.4v-11c64.6 4.3 124.9 32.6 170.6 80.1 39.5 41.1 64.3 92.7 71.7 148.1C272 284.1 107.5 292.8 4.1 394c-2.5 2.8-4.1 6.4-4.1 10.3 0 3.8 1.5 7.6 4.2 10.3l18.9 18.9c.4.4.7.7 1.1 1a291.4 291.4 0 0 0 183.5 65.2h.6c52.2 0 103.3-14.1 148-40.5 3.3-2 5.7-5.1 6.6-8.8 1-3.7.4-7.6-1.6-10.9-2-3.3-5.1-5.7-8.8-6.6-3.7-1-7.6-.4-10.9 1.6A262.51 262.51 0 0 1 208.4 471h-.7a262.4 262.4 0 0 1-164.6-58.2l-7.8-7.8c48.7-42.7 111.3-65.5 177.1-64.5 68.2 1.1 132.1 27.8 180.1 75.2 55 54.4 128.3 84.4 206.3 84.4 78.1 0 151.4-30 206.5-84.5 2.7-2.7 4.3-6.4 4.3-10.2s-1.6-7.6-4.3-10.2Z" /></svg>